<mxfile host="app.diagrams.net" modified="2024-07-21T12:20:22.605Z" agent="Mozilla/5.0 (Windows NT 10.0; Win64; x64) AppleWebKit/537.36 (KHTML, like Gecko) Chrome/126.0.0.0 Safari/537.36" etag="v6H988mYHAYx_YhM_noj" version="24.6.4" type="github">
  <diagram name="Page-1" id="JMZqaTamtCrcKsAUNokJ">
    <mxGraphModel dx="969" dy="516" grid="1" gridSize="10" guides="1" tooltips="1" connect="1" arrows="1" fold="1" page="1" pageScale="1" pageWidth="850" pageHeight="1100" math="0" shadow="0">
      <root>
        <mxCell id="0" />
        <mxCell id="1" parent="0" />
        <mxCell id="yfp1X50c1Cd5gOTeeE3f-5" value="" style="rounded=0;whiteSpace=wrap;html=1;" vertex="1" parent="1">
          <mxGeometry x="190" y="370" width="380" height="350" as="geometry" />
        </mxCell>
        <mxCell id="yfp1X50c1Cd5gOTeeE3f-6" value="" style="group" vertex="1" connectable="0" parent="1">
          <mxGeometry x="70" y="480" width="100" height="110" as="geometry" />
        </mxCell>
        <mxCell id="yfp1X50c1Cd5gOTeeE3f-2" value="" style="verticalLabelPosition=bottom;html=1;verticalAlign=top;align=center;strokeColor=none;fillColor=#00BEF2;shape=mxgraph.azure.computer;pointerEvents=1;" vertex="1" parent="yfp1X50c1Cd5gOTeeE3f-6">
          <mxGeometry width="100" height="110" as="geometry" />
        </mxCell>
        <mxCell id="yfp1X50c1Cd5gOTeeE3f-1" value="Excel File" style="whiteSpace=wrap;html=1;shape=mxgraph.basic.document" vertex="1" parent="yfp1X50c1Cd5gOTeeE3f-6">
          <mxGeometry x="13.333333333333336" y="30.985915492957744" width="33.333333333333336" height="30.985915492957744" as="geometry" />
        </mxCell>
        <mxCell id="yfp1X50c1Cd5gOTeeE3f-3" value="Excel File" style="whiteSpace=wrap;html=1;shape=mxgraph.basic.document" vertex="1" parent="yfp1X50c1Cd5gOTeeE3f-6">
          <mxGeometry x="53.33333333333334" y="30.985915492957744" width="33.333333333333336" height="30.985915492957744" as="geometry" />
        </mxCell>
        <mxCell id="yfp1X50c1Cd5gOTeeE3f-8" value="" style="image;sketch=0;aspect=fixed;html=1;points=[];align=center;fontSize=12;image=img/lib/mscae/Data_Lake.svg;" vertex="1" parent="1">
          <mxGeometry x="270" y="500" width="38" height="50" as="geometry" />
        </mxCell>
        <mxCell id="yfp1X50c1Cd5gOTeeE3f-9" value="" style="image;sketch=0;aspect=fixed;html=1;points=[];align=center;fontSize=12;image=img/lib/mscae/Data_Lake.svg;" vertex="1" parent="1">
          <mxGeometry x="370" y="500" width="38" height="50" as="geometry" />
        </mxCell>
        <mxCell id="yfp1X50c1Cd5gOTeeE3f-10" value="" style="image;sketch=0;aspect=fixed;html=1;points=[];align=center;fontSize=12;image=img/lib/mscae/Data_Lake.svg;" vertex="1" parent="1">
          <mxGeometry x="470" y="500" width="38" height="50" as="geometry" />
        </mxCell>
        <mxCell id="yfp1X50c1Cd5gOTeeE3f-11" value="" style="endArrow=classic;html=1;rounded=0;" edge="1" parent="1">
          <mxGeometry width="50" height="50" relative="1" as="geometry">
            <mxPoint x="170" y="531" as="sourcePoint" />
            <mxPoint x="270" y="530" as="targetPoint" />
          </mxGeometry>
        </mxCell>
        <mxCell id="yfp1X50c1Cd5gOTeeE3f-12" value="" style="endArrow=classic;html=1;rounded=0;exitX=0.984;exitY=0.565;exitDx=0;exitDy=0;exitPerimeter=0;entryX=0.019;entryY=0.54;entryDx=0;entryDy=0;entryPerimeter=0;" edge="1" parent="1" source="yfp1X50c1Cd5gOTeeE3f-8" target="yfp1X50c1Cd5gOTeeE3f-9">
          <mxGeometry width="50" height="50" relative="1" as="geometry">
            <mxPoint x="320" y="535.5" as="sourcePoint" />
            <mxPoint x="370" y="530" as="targetPoint" />
          </mxGeometry>
        </mxCell>
        <mxCell id="yfp1X50c1Cd5gOTeeE3f-15" value="" style="endArrow=classic;html=1;rounded=0;exitX=0.941;exitY=0.576;exitDx=0;exitDy=0;exitPerimeter=0;entryX=0.03;entryY=0.576;entryDx=0;entryDy=0;entryPerimeter=0;" edge="1" parent="1" source="yfp1X50c1Cd5gOTeeE3f-9" target="yfp1X50c1Cd5gOTeeE3f-10">
          <mxGeometry width="50" height="50" relative="1" as="geometry">
            <mxPoint x="317" y="538" as="sourcePoint" />
            <mxPoint x="381" y="537" as="targetPoint" />
          </mxGeometry>
        </mxCell>
        <mxCell id="yfp1X50c1Cd5gOTeeE3f-16" value="" style="image;aspect=fixed;html=1;points=[];align=center;fontSize=12;image=img/lib/azure2/analytics/Power_BI_Embedded.svg;" vertex="1" parent="1">
          <mxGeometry x="630" y="482" width="51" height="68" as="geometry" />
        </mxCell>
      </root>
    </mxGraphModel>
  </diagram>
</mxfile>
